<?xml version="1.0" encoding="utf-8"?>
<!-- Generator: Adobe Illustrator 22.0.1, SVG Export Plug-In . SVG Version: 6.00 Build 0)  -->
<svg version="1.1" id="Capa_1" xmlns="http://www.w3.org/2000/svg" xmlns:xlink="http://www.w3.org/1999/xlink" x="0px" y="0px"
	 viewBox="0 0 1080 680" style="enable-background:new 0 0 1080 680;" xml:space="preserve">
<style type="text/css">
	.st0{opacity:0.1;}
	.st1{fill:url(#SVGID_1_);}
	.st2{fill:url(#SVGID_2_);}
	.st3{fill:url(#SVGID_3_);}
	.st4{fill:url(#SVGID_4_);}
	.st5{fill:url(#SVGID_5_);}
	.st6{fill:url(#SVGID_6_);}
	.st7{fill:url(#SVGID_7_);}
	.st8{fill:url(#SVGID_8_);}
	.st9{fill:url(#SVGID_9_);}
	.st10{fill:url(#SVGID_10_);}
	.st11{fill:url(#SVGID_11_);}
	.st12{fill:url(#SVGID_12_);}
	.st13{fill:url(#SVGID_13_);}
	.st14{fill:url(#SVGID_14_);}
	.st15{fill:url(#SVGID_15_);}
	.st16{fill:url(#SVGID_16_);}
	.st17{fill:#FFFFFF;}
	.st18{fill:#999999;}
	.st19{fill:#03A5F0;}
	.st20{fill:#FFB903;}
	.st21{fill:#F35022;}
	.st22{fill:#80BB03;}
	.st23{fill:#FF9900;}
	.st24{fill:#4285F4;}
	.st25{fill:#34A853;}
	.st26{fill:#FBBC04;}
	.st27{fill:#EA4335;}
	.st28{fill:#0052CC;}
	.st29{fill:#0080FF;}
	.st30{fill:#FF0000;}
	.st31{fill:#1BA0D7;}
	.st32{fill:#FF5A5F;}
	.st33{fill:#F80000;}
	.st34{fill:#054ADA;}
	.st35{fill:#FF3366;}
</style>
<g>
	<g class="st0">
		<path d="M98.6,319.3l55,31.8c9.1,5.2,9.1,13.7,0,18.9l-55,31.8c-9.1,5.2-23.7,5.2-32.8,0l-55-31.8c-9.1-5.2-9.1-13.7,0-18.9
			l55-31.8C74.9,314,89.6,314,98.6,319.3z"/>
		<path d="M246.1,234.1l55,31.8c9.1,5.2,9.1,13.7,0,18.9l-55,31.8c-9.1,5.2-23.7,5.2-32.8,0l-55-31.8c-9.1-5.2-9.1-13.7,0-18.9
			l55-31.8C222.4,228.9,237,228.9,246.1,234.1z"/>
		<path d="M393.6,148.9l55,31.8c9.1,5.2,9.1,13.7,0,18.9l-55,31.8c-9.1,5.2-23.7,5.2-32.8,0l-55-31.8c-9.1-5.2-9.1-13.7,0-18.9
			l55-31.8C369.8,143.7,384.5,143.7,393.6,148.9z"/>
		<path d="M541.1,63.8l55,31.8c9.1,5.2,9.1,13.7,0,18.9l-55,31.8c-9.1,5.2-23.7,5.2-32.8,0l-55-31.8c-9.1-5.2-9.1-13.7,0-18.9
			l55-31.8C517.3,58.5,532,58.5,541.1,63.8z"/>
		<path d="M413.5,501l55,31.8c9.1,5.2,9.1,13.7,0,18.9l-55,31.8c-9.1,5.2-23.7,5.2-32.8,0l-55-31.8c-9.1-5.2-9.1-13.7,0-18.9
			l55-31.8C389.7,495.8,404.4,495.8,413.5,501z"/>
		<path d="M708.4,330.7l55,31.8c9.1,5.2,9.1,13.7,0,18.9l-55,31.8c-9.1,5.2-23.7,5.2-32.8,0l-55-31.8c-9.1-5.2-9.1-13.7,0-18.9
			l55-31.8C684.7,325.5,699.4,325.5,708.4,330.7z"/>
		<path d="M855.9,245.6l55,31.8c9.1,5.2,9.1,13.7,0,18.9l-55,31.8c-9.1,5.2-23.7,5.2-32.8,0l-55-31.8c-9.1-5.2-9.1-13.7,0-18.9
			l55-31.8C832.2,240.4,846.9,240.4,855.9,245.6z"/>
		<path d="M561,415.8l55,31.8c9.1,5.2,9.1,13.7,0,18.9l-55,31.8c-9.1,5.2-23.7,5.2-32.8,0l-55-31.8c-9.1-5.2-9.1-13.7,0-18.9
			l55-31.8C537.2,410.7,551.9,410.7,561,415.8z"/>
		<path d="M698.5,154.7l55,31.8c9.1,5.2,9.1,13.7,0,18.9l-55,31.8c-9.1,5.2-23.7,5.2-32.8,0l-55-31.8c-9.1-5.2-9.1-13.7,0-18.9
			l55-31.8C674.7,149.5,689.4,149.5,698.5,154.7z"/>
		<path d="M551,239.8l55,31.8c9.1,5.2,9.1,13.7,0,18.9l-55,31.8c-9.1,5.2-23.7,5.2-32.8,0l-55-31.8c-9.1-5.2-9.1-13.7,0-18.9
			l55-31.8C527.3,234.6,541.9,234.6,551,239.8z"/>
		<path d="M256.1,410.2l55,31.8c9.1,5.2,9.1,13.7,0,18.9l-55,31.8c-9.1,5.2-23.7,5.2-32.8,0l-55-31.8c-9.1-5.2-9.1-13.7,0-18.9
			l55-31.8C232.3,404.8,247,404.8,256.1,410.2z"/>
		<path d="M403.5,325l55,31.8c9.1,5.2,9.1,13.7,0,18.9l-55,31.8c-9.1,5.2-23.7,5.2-32.8,0l-55-31.8c-9.1-5.2-9.1-13.7,0-18.9
			l55-31.8C379.8,319.8,394.5,319.8,403.5,325z"/>
		<path d="M718.4,506.8l55,31.8c9.1,5.2,9.1,13.7,0,18.9l-55,31.8c-9.1,5.2-23.7,5.2-32.8,0l-55-31.8c-9.1-5.2-9.1-13.7,0-18.9
			l55-31.8C694.6,501.5,709.3,501.5,718.4,506.8z"/>
		<path d="M865.9,421.5l55,31.8c9.1,5.2,9.1,13.7,0,18.9l-55,31.8c-9.1,5.2-23.7,5.2-32.8,0l-55-31.8c-9.1-5.2-9.1-13.7,0-18.9
			l55-31.8C842.1,416.3,856.8,416.3,865.9,421.5z"/>
		<path d="M570.9,591.8l55,31.8c9.1,5.2,9.1,13.7,0,18.9l-55,31.8c-9.1,5.2-23.7,5.2-32.8,0l-55-31.8c-9.1-5.2-9.1-13.7,0-18.9
			l55-31.8C547.2,586.7,561.8,586.7,570.9,591.8z"/>
		<path d="M1013.3,336.5l55,31.8c9.1,5.2,9.1,13.7,0,18.9l-55,31.8c-9.1,5.2-23.7,5.2-32.8,0l-55-31.8c-9.1-5.2-9.1-13.7,0-18.9
			l55-31.8C989.6,331.3,1004.3,331.3,1013.3,336.5z"/>
	</g>
	<g>
		
			<linearGradient id="SVGID_1_" gradientUnits="userSpaceOnUse" x1="152.2942" y1="438.9625" x2="308.5" y2="438.9625" gradientTransform="matrix(1 0 0 -1 0 682.5)">
			<stop  offset="0" style="stop-color:#F2F3FF"/>
			<stop  offset="0.5" style="stop-color:#C0C3E2"/>
			<stop  offset="1" style="stop-color:#F2F3FF"/>
		</linearGradient>
		<path class="st1" d="M155.5,241.7l54.5,31.5c12.6,7.3,28.1,7.3,40.7,0l54.5-31.5c2-1.2,3.3-3.4,3.3-5.7v-15.4
			c0-0.9-0.7-1.7-1.6-1.9l-76.5-10.2l-76.5,10.2c-0.9,0.1-1.6,0.9-1.6,1.9v15.4C152.2,238.3,153.4,240.5,155.5,241.7z"/>
		
			<linearGradient id="SVGID_2_" gradientUnits="userSpaceOnUse" x1="162.2" y1="263.3625" x2="318.5" y2="263.3625" gradientTransform="matrix(1 0 0 -1 0 682.5)">
			<stop  offset="0" style="stop-color:#F2F3FF"/>
			<stop  offset="0.5" style="stop-color:#C0C3E2"/>
			<stop  offset="1" style="stop-color:#F2F3FF"/>
		</linearGradient>
		<path class="st2" d="M165.5,417.3l54.5,31.5c12.6,7.3,28.1,7.3,40.7,0l54.5-31.5c2-1.2,3.3-3.4,3.3-5.7v-15.4
			c0-0.9-0.7-1.7-1.6-1.9L240.4,384l-76.6,10.2c-0.9,0.1-1.6,0.9-1.6,1.9v15.4C162.2,413.8,163.4,416,165.5,417.3z"/>
		<g>
			
				<linearGradient id="SVGID_3_" gradientUnits="userSpaceOnUse" x1="448.3946" y1="608.8625" x2="604.6" y2="608.8625" gradientTransform="matrix(1 0 0 -1 0 682.5)">
				<stop  offset="0" style="stop-color:#F2F3FF"/>
				<stop  offset="0.5" style="stop-color:#C0C3E2"/>
				<stop  offset="1" style="stop-color:#F2F3FF"/>
			</linearGradient>
			<path class="st3" d="M451.6,71.8l54.5,31.5c12.6,7.3,28.1,7.3,40.7,0l54.5-31.5c2-1.2,3.3-3.4,3.3-5.7V50.7
				c0-0.9-0.7-1.7-1.6-1.9l-76.5-10.2L450,48.8c-0.9,0.1-1.6,0.9-1.6,1.9V66C448.3,68.4,449.6,70.5,451.6,71.8z"/>
			
				<linearGradient id="SVGID_4_" gradientUnits="userSpaceOnUse" x1="605.7947" y1="518.1625" x2="762" y2="518.1625" gradientTransform="matrix(1 0 0 -1 0 682.5)">
				<stop  offset="0" style="stop-color:#F2F3FF"/>
				<stop  offset="0.5" style="stop-color:#C0C3E2"/>
				<stop  offset="1" style="stop-color:#F2F3FF"/>
			</linearGradient>
			<path class="st4" d="M609,162.5l54.5,31.5c12.6,7.3,28.1,7.3,40.7,0l54.5-31.5c2-1.2,3.3-3.4,3.3-5.7v-15.4
				c0-0.9-0.7-1.7-1.6-1.9l-76.5-10.2l-76.5,10.2c-0.9,0.1-1.6,0.9-1.6,1.9v15.4C605.7,159.1,607,161.3,609,162.5z"/>
			
				<linearGradient id="SVGID_5_" gradientUnits="userSpaceOnUse" x1="299.8946" y1="523.9125" x2="456.1" y2="523.9125" gradientTransform="matrix(1 0 0 -1 0 682.5)">
				<stop  offset="0" style="stop-color:#F2F3FF"/>
				<stop  offset="0.5" style="stop-color:#C0C3E2"/>
				<stop  offset="1" style="stop-color:#F2F3FF"/>
			</linearGradient>
			<path class="st5" d="M303.1,156.7l54.5,31.5c12.6,7.3,28.1,7.3,40.7,0l54.5-31.5c2-1.2,3.3-3.4,3.3-5.7v-15.4
				c0-0.9-0.7-1.7-1.6-1.9L378,123.5l-76.5,10.2c-0.9,0.1-1.6,0.9-1.6,1.9v15.4C299.8,153.4,301.1,155.6,303.1,156.7z"/>
			
				<linearGradient id="SVGID_6_" gradientUnits="userSpaceOnUse" x1="457.2946" y1="433.2625" x2="613.5" y2="433.2625" gradientTransform="matrix(1 0 0 -1 0 682.5)">
				<stop  offset="0" style="stop-color:#F2F3FF"/>
				<stop  offset="0.5" style="stop-color:#C0C3E2"/>
				<stop  offset="1" style="stop-color:#F2F3FF"/>
			</linearGradient>
			<path class="st6" d="M460.5,247.4l54.5,31.5c12.6,7.3,28.1,7.3,40.7,0l54.5-31.5c2-1.2,3.3-3.4,3.3-5.7v-15.4
				c0-0.9-0.7-1.7-1.6-1.9l-76.5-10.2l-76.5,10.2c-0.9,0.1-1.6,0.9-1.6,1.9v15.4C457.2,244,458.5,246.2,460.5,247.4z"/>
			
				<linearGradient id="SVGID_7_" gradientUnits="userSpaceOnUse" x1="4.8" y1="353.2625" x2="161.1" y2="353.2625" gradientTransform="matrix(1 0 0 -1 0 682.5)">
				<stop  offset="0" style="stop-color:#F2F3FF"/>
				<stop  offset="0.5" style="stop-color:#C0C3E2"/>
				<stop  offset="1" style="stop-color:#F2F3FF"/>
			</linearGradient>
			<path class="st7" d="M8.1,327.3l54.5,31.5c12.6,7.3,28.1,7.3,40.7,0l54.5-31.5c2-1.2,3.3-3.4,3.3-5.7v-15.4
				c0-0.9-0.7-1.7-1.6-1.9L83,294.1L6.4,304.4c-0.9,0.1-1.6,0.9-1.6,1.9v15.4C4.8,324,6,326.2,8.1,327.3z"/>
			
				<linearGradient id="SVGID_8_" gradientUnits="userSpaceOnUse" x1="319.7942" y1="171.9625" x2="476" y2="171.9625" gradientTransform="matrix(1 0 0 -1 0 682.5)">
				<stop  offset="0" style="stop-color:#F2F3FF"/>
				<stop  offset="0.5" style="stop-color:#C0C3E2"/>
				<stop  offset="1" style="stop-color:#F2F3FF"/>
			</linearGradient>
			<path class="st8" d="M323,508.7l54.5,31.5c12.6,7.3,28.1,7.3,40.7,0l54.5-31.5c2-1.2,3.3-3.4,3.3-5.7v-15.4
				c0-0.9-0.7-1.7-1.6-1.9l-76.5-10.2l-76.5,10.2c-0.9,0.1-1.6,0.9-1.6,1.9V503C319.7,505.3,320.9,507.5,323,508.7z"/>
			
				<linearGradient id="SVGID_9_" gradientUnits="userSpaceOnUse" x1="467.2946" y1="257.6625" x2="623.5" y2="257.6625" gradientTransform="matrix(1 0 0 -1 0 682.5)">
				<stop  offset="0" style="stop-color:#F2F3FF"/>
				<stop  offset="0.5" style="stop-color:#C0C3E2"/>
				<stop  offset="1" style="stop-color:#F2F3FF"/>
			</linearGradient>
			<path class="st9" d="M470.5,423l54.5,31.5c12.6,7.3,28.1,7.3,40.7,0l54.5-31.5c2-1.2,3.3-3.4,3.3-5.7v-15.4
				c0-0.9-0.7-1.7-1.6-1.9l-76.5-10.2l-76.5,10.2c-0.9,0.1-1.6,0.9-1.6,1.9v15.4C467.2,419.5,468.5,421.8,470.5,423z"/>
			
				<linearGradient id="SVGID_10_" gradientUnits="userSpaceOnUse" x1="614.6947" y1="343.3625" x2="770.9" y2="343.3625" gradientTransform="matrix(1 0 0 -1 0 682.5)">
				<stop  offset="0" style="stop-color:#F2F3FF"/>
				<stop  offset="0.5" style="stop-color:#C0C3E2"/>
				<stop  offset="1" style="stop-color:#F2F3FF"/>
			</linearGradient>
			<path class="st10" d="M617.9,337.3l54.5,31.5c12.6,7.3,28.1,7.3,40.7,0l54.5-31.5c2-1.2,3.3-3.4,3.3-5.7v-15.4
				c0-0.9-0.7-1.7-1.6-1.9L692.8,304l-76.5,10.2c-0.9,0.1-1.6,0.9-1.6,1.9v15.4C614.6,334,615.9,336.2,617.9,337.3z"/>
			
				<linearGradient id="SVGID_11_" gradientUnits="userSpaceOnUse" x1="763.1947" y1="427.5625" x2="919.4" y2="427.5625" gradientTransform="matrix(1 0 0 -1 0 682.5)">
				<stop  offset="0" style="stop-color:#F2F3FF"/>
				<stop  offset="0.5" style="stop-color:#C0C3E2"/>
				<stop  offset="1" style="stop-color:#F2F3FF"/>
			</linearGradient>
			<path class="st11" d="M766.4,253.1l54.5,31.5c12.6,7.3,28.1,7.3,40.7,0l54.5-31.5c2-1.2,3.3-3.4,3.3-5.7v-15.4
				c0-0.9-0.7-1.7-1.6-1.9l-76.5-10.2l-76.5,10.2c-0.9,0.1-1.6,0.9-1.6,1.9v15.4C763.1,249.8,764.4,251.9,766.4,253.1z"/>
			
				<linearGradient id="SVGID_12_" gradientUnits="userSpaceOnUse" x1="477.1942" y1="81.3625" x2="633.4" y2="81.3625" gradientTransform="matrix(1 0 0 -1 0 682.5)">
				<stop  offset="0" style="stop-color:#F2F3FF"/>
				<stop  offset="0.5" style="stop-color:#C0C3E2"/>
				<stop  offset="1" style="stop-color:#F2F3FF"/>
			</linearGradient>
			<path class="st12" d="M480.4,599.3l54.5,31.5c12.6,7.3,28.1,7.3,40.7,0l54.5-31.5c2-1.2,3.3-3.4,3.3-5.7v-15.4
				c0-0.9-0.7-1.7-1.6-1.9L555.3,566l-76.5,10.2c-0.9,0.1-1.6,0.9-1.6,1.9v15.4C477.1,596,478.3,598.2,480.4,599.3z"/>
			
				<linearGradient id="SVGID_13_" gradientUnits="userSpaceOnUse" x1="624.6947" y1="166.2625" x2="780.9" y2="166.2625" gradientTransform="matrix(1 0 0 -1 0 682.5)">
				<stop  offset="0" style="stop-color:#F2F3FF"/>
				<stop  offset="0.5" style="stop-color:#C0C3E2"/>
				<stop  offset="1" style="stop-color:#F2F3FF"/>
			</linearGradient>
			<path class="st13" d="M627.9,514.3l54.5,31.5c12.6,7.3,28.1,7.3,40.7,0l54.5-31.5c2-1.2,3.3-3.4,3.3-5.7v-15.4
				c0-0.9-0.7-1.7-1.6-1.9l-76.5-10.2l-76.5,10.2c-0.9,0.1-1.6,0.9-1.6,1.9v15.4C624.6,511,625.9,513.2,627.9,514.3z"/>
			
				<linearGradient id="SVGID_14_" gradientUnits="userSpaceOnUse" x1="772.0947" y1="250.5626" x2="928.3" y2="250.5626" gradientTransform="matrix(1 0 0 -1 0 682.5)">
				<stop  offset="0" style="stop-color:#F2F3FF"/>
				<stop  offset="0.5" style="stop-color:#C0C3E2"/>
				<stop  offset="1" style="stop-color:#F2F3FF"/>
			</linearGradient>
			<path class="st14" d="M775.3,430l54.5,31.5c12.6,7.3,28.1,7.3,40.7,0L925,430c2-1.2,3.3-3.4,3.3-5.7v-15.4c0-0.9-0.7-1.7-1.6-1.9
				l-76.5-10.2L773.7,407c-0.9,0.1-1.6,0.9-1.6,1.9v15.4C772,426.8,773.3,429,775.3,430z"/>
			
				<linearGradient id="SVGID_15_" gradientUnits="userSpaceOnUse" x1="920.5947" y1="336.1625" x2="1076.8" y2="336.1625" gradientTransform="matrix(1 0 0 -1 0 682.5)">
				<stop  offset="0" style="stop-color:#F2F3FF"/>
				<stop  offset="0.5" style="stop-color:#C0C3E2"/>
				<stop  offset="1" style="stop-color:#F2F3FF"/>
			</linearGradient>
			<path class="st15" d="M923.8,344.5l54.5,31.5c12.6,7.3,28.1,7.3,40.7,0l54.5-31.5c2-1.2,3.3-3.4,3.3-5.7v-15.4
				c0-0.9-0.7-1.7-1.6-1.9l-76.5-10.2l-76.5,10.2c-0.9,0.1-1.6,0.9-1.6,1.9v15.4C920.5,341,921.8,343.3,923.8,344.5z"/>
			
				<linearGradient id="SVGID_16_" gradientUnits="userSpaceOnUse" x1="309.7942" y1="348.2625" x2="466" y2="348.2625" gradientTransform="matrix(1 0 0 -1 0 682.5)">
				<stop  offset="0" style="stop-color:#F2F3FF"/>
				<stop  offset="0.5" style="stop-color:#C0C3E2"/>
				<stop  offset="1" style="stop-color:#F2F3FF"/>
			</linearGradient>
			<path class="st16" d="M313,332.3l54.5,31.5c12.6,7.3,28.1,7.3,40.7,0l54.5-31.5c2-1.2,3.3-3.4,3.3-5.7v-15.4
				c0-0.9-0.7-1.7-1.6-1.9l-76.5-10.2l-76.5,10.2c-0.9,0.1-1.6,0.9-1.6,1.9v15.4C309.7,329,310.9,331.2,313,332.3z"/>
		</g>
		<g>
			<g>
				<path class="st17" d="M99.4,264.8l55,31.8c9.1,5.2,9.1,13.7,0,18.9l-55,31.8c-9.1,5.2-23.7,5.2-32.8,0l-55-31.8
					c-9.1-5.2-9.1-13.7,0-18.9l55-31.8C75.7,259.5,90.3,259.5,99.4,264.8z"/>
				<path class="st18" d="M99.3,329.3c-1.9,0.2-3.9,0.3-5.9,0.1c-2.1-0.1-4.1-0.3-6.2-0.6c-4.6-0.5-9.1-1.4-13.3-2.6
					c-4.9-1.4-9.1-3.1-12.5-5.1c-3.9-2.2-6.4-4.7-7.6-7.2c-1-2-1.1-4.1-0.2-6.1c0.8-2,2.5-3.8,4.9-5.2c0.9-0.5,1.9-1,3.1-1.4
					c0.9-0.3,2.1-0.6,3.5-1c1.9-0.5,2.9-0.7,3.2-0.8c1.1-0.3,1.9-0.6,2.4-0.9c0.4-0.2,0.8-0.6,1.3-1.1c0.2-0.3,0.7-0.8,1.2-1.6
					c0.6-0.7,1.1-1.4,1.4-1.8c0.6-0.7,1.3-1.3,1.9-1.9c0.8-0.6,1.7-1.2,2.7-1.7c1.9-0.9,3.8-1.6,5.8-2.2c3.5-0.9,7.1-1.1,10.9-0.7
					c-0.2,0.6-0.4,1.2-0.4,1.8c-0.1,1.3,0.1,2.6,0.7,3.9c0.8,1.7,2.4,3.3,4.6,4.5c2.7,1.5,5.7,2.5,9.1,2.9c2.4,0.3,5,0.3,7.5,0
					c1.3-0.1,2.3-0.3,3.2-0.6c0.6,0.7,1.2,1.4,1.7,2.1c1.1,1.6,2,3.3,2.6,5.1c0.5,1.5,0.8,2.7,0.9,3.5c0.2,1.3,0.1,2.3-0.2,3.2
					c-0.4,1-1.2,1.9-2.5,2.7c-0.8,0.5-1.8,1-2.9,1.3c-0.9,0.3-1.9,0.5-2.9,0.8c-1.1,0.2-2.1,0.5-3.1,0.8c-1.2,0.4-2.3,0.9-3.2,1.4
					c-1,0.6-1.8,1.2-2.5,1.9c-0.5,0.6-1,1.1-1.4,1.7c-0.6,0.8-1,1.4-1.3,1.7c-0.6,0.6-1.2,1.1-2,1.7
					C102.8,328.7,101.2,329.2,99.3,329.3L99.3,329.3z M70.8,293.5c-0.8,1.4-2.1,2.6-3.8,3.4c-1.8-0.8-3.2-1.9-4.3-3.3
					c-0.9-1.2-1.5-2.5-1.7-3.8c-0.1-1.4,0.1-2.8,0.9-4.1c0.8-1.4,1.9-2.6,3.3-3.5c1.9,0.9,3.3,1.9,4.5,3.3c1,1.2,1.6,2.6,1.9,3.9
					C71.7,290.8,71.5,292.1,70.8,293.5z"/>
			</g>
			<g>
				<path class="st17" d="M246.9,179.7l55,31.8c9.1,5.2,9.1,13.7,0,18.9l-55,31.8c-9.1,5.2-23.7,5.2-32.8,0l-55-31.8
					c-9.1-5.2-9.1-13.7,0-18.9l55-31.8C223.1,174.4,237.8,174.4,246.9,179.7z"/>
				<g>
					<polygon class="st19" points="202.6,238.7 230.5,222.6 258.3,238.7 230.5,254.7 					"/>
					<polygon class="st20" points="233.4,220.9 261.3,204.8 289.1,220.9 261.3,237 					"/>
					<polygon class="st21" points="171.9,220.9 199.7,204.8 227.5,220.9 199.7,237 					"/>
					<polygon class="st22" points="202.6,203.1 230.5,187.1 258.3,203.1 230.5,219.2 					"/>
				</g>
			</g>
			<g>
				<path class="st17" d="M394.4,94.5l55,31.8c9.1,5.2,9.1,13.7,0,18.9l-55,31.8c-9.1,5.2-23.7,5.2-32.8,0l-55-31.8
					c-9.1-5.2-9.1-13.7,0-18.9l55-31.8C370.6,89.3,385.3,89.3,394.4,94.5z"/>
				<path class="st23" d="M362,163.7c-0.1-0.3,0.2-0.5,0.9-0.6c15.5-2.4,28.9-6.9,40.4-13.5c7.7-4.4,13.8-9.6,18.4-15.6l0.5-0.7
					c0.2-0.3,0.4-0.5,0.4-0.7c0.4-0.5,0.9-0.7,1.8-0.6c0.8,0.1,1.1,0.4,1,0.9c-0.2,0.7-0.5,1.6-0.9,2.6c-1.3,3.1-3.6,6.1-6.6,9.2
					c-3,3-6.5,5.7-10.5,8c-6.1,3.5-12.9,6.2-20.5,8.1s-15.4,3-23.6,3.2c-0.5,0-0.8,0-1-0.1C362.1,163.8,362,163.7,362,163.7
					L362,163.7z M362.9,143.8c-2.7-1.6-4.3-3.3-4.9-5.2c-0.6-1.9-0.2-3.8,1.1-5.7c1.2-1.8,3.2-3.6,5.9-5.6c0.9-0.7,2.5-1.8,4.7-3.3
					l-1-0.6c-2.5-1.4-4.5-2.3-5.8-2.4c-2-0.2-3.8,0.2-5.6,1.2l-0.5,0.3c-1.2,0.8-1.9,1.7-2.1,2.6c-0.2,1,0.1,1.9,1.1,2.7
					c0.6,0.6,0.7,1,0.2,1.5l-7.6,3.4c-0.8,0.3-1.5,0.3-2,0c-0.1-0.1-0.2-0.2-0.3-0.3c-2.8-2.4-3.8-4.8-2.9-7.3c1-2.5,3-4.8,6.3-6.9
					l1.5-0.8c4.4-2.6,9.1-3.9,13.9-4c0.8,0,1.5,0,2.4,0.1c0.8,0.1,1.4,0.1,2,0.3c0.6,0.1,1.3,0.3,2.1,0.6c0.8,0.3,1.4,0.5,1.7,0.6
					c0.4,0.1,1,0.4,1.9,0.8c0.9,0.5,1.4,0.7,1.5,0.8l14.2,8.2c1,0.6,2.1,1,3.2,1.4c1.1,0.3,2,0.5,2.7,0.6l3.2,0.3
					c0.6,0.1,1.1,0.2,1.3,0.3c0.3,0.2,0.4,0.4,0.4,0.8c-0.4,3.5-0.6,5.4-0.7,5.7c-0.1,0.5-0.6,0.8-1.6,1c-1,0-1.9,0.1-2.7,0
					l-1.8-0.1c-0.4,0-1-0.1-2-0.2l-2-0.2c0.2,2.6-0.4,4.7-2,6.3c-0.9,1-2.3,2-4.3,3.2c-3,1.7-6.4,2.6-10.2,2.7
					c-3.8,0-7.4-0.9-10.8-2.9L362.9,143.8z M371.9,137.3c1.5,0.9,3.1,1.4,4.8,1.5c1.7,0.1,3.2-0.3,4.5-1c0.1-0.1,0.3-0.2,0.5-0.3
					c0.2-0.2,0.3-0.2,0.4-0.3c1.2-1.2,1.4-2.5,0.7-4c-0.3-0.7-0.8-1.3-1.5-2c-0.6-0.6-1.3-1.1-1.8-1.5c-0.5-0.3-1.4-0.9-2.7-1.6
					l-1.5-0.8c-2.3,1.3-3.8,2.4-4.7,3.3c-2.5,2.5-2,4.8,1.4,6.8L371.9,137.3z M415.4,134c-0.1-0.1-0.1-0.3-0.1-0.5
					c0.3-0.9,0.8-1.7,1.5-2.4c1.1-1.1,2.3-2,3.7-2.9c0.3-0.2,0.8-0.4,1.2-0.6c1.9-0.9,3.3-1.4,4-1.3c0.4,0,0.9,0.2,1.3,0.5l0.4,0.2
					c1.4,0.8,2.6,1.9,3.7,3.4s1.6,3,1.4,4.4c0,0.2-0.1,0.4-0.3,0.4c-0.1,0-0.2,0.1-0.3,0.1c-0.4,0.1-0.6,0-0.8-0.3
					c-1.9-2.8-3.6-4.6-4.9-5.4c-0.4-0.2-0.8-0.4-1.2-0.4c-0.8,0-2.2,0.5-4,1.5c-0.7,0.4-1.4,0.9-2.2,1.4c-0.9,0.6-1.6,1.2-2.3,1.8
					c-0.2,0.1-0.4,0.2-0.6,0.2s-0.2,0-0.3-0.1l-0.1-0.1L415.4,134z"/>
			</g>
			<g>
				<path class="st17" d="M542.9,8.7l55,31.8c9.1,5.2,9.1,13.7,0,18.9l-55,31.8c-9.1,5.2-23.7,5.2-32.8,0l-55-31.8
					c-9.1-5.2-9.1-13.7,0-18.9l55-31.8C519.2,3.5,533.8,3.5,542.9,8.7z"/>
				<g>
					<path class="st24" d="M556.3,33.6c-2-1.2-4.2-2.2-6.5-3.2l-28,16.2l11.4,6.6l16-9.3c3,2.5,4.1,5.6,3.1,8.6l7.4,4.3l9.6-5.5
						C569.7,45.1,565.3,38.8,556.3,33.6L556.3,33.6z"/>
					<path class="st25" d="M556.8,66.8c8-4.6,12.1-10,12.5-15.5l-17,1.2c-0.9,2.6-3.3,5.2-7.3,7.5c-7.7,4.5-19.5,5.2-28.9,2.6
						l-9.9,5.7l7.6,4.4C529,75.5,545.6,73.3,556.8,66.8z"/>
					<path class="st26" d="M516.1,62.5c-4.9-1.4-8.9-3.7-11.4-6.6l-7.6-4.4l-9.9,5.7c4.2,7.3,14.1,13,26.7,15.4L516.1,62.5z"/>
					<path class="st27" d="M509.1,39.3c4.2-2.5,9.9-3.9,15.8-4v-9.8c-10.4,0.2-20.3,2.7-27.6,7c-11.2,6.5-15.2,16.1-10.2,24.8
						l17.5-1.3C500,50.6,501.4,43.7,509.1,39.3z"/>
				</g>
			</g>
			<g>
				<path class="st17" d="M414.3,446.5l55,31.8c9.1,5.2,9.1,13.7,0,18.9l-55,31.8c-9.1,5.2-23.7,5.2-32.8,0l-55-31.8
					c-9.1-5.2-9.1-13.7,0-18.9l55-31.8C390.5,441.3,405.2,441.3,414.3,446.5z"/>
				<path class="st28" d="M446.4,494.5l-9.1,5.2c-0.1,0.1-0.2,0.1-0.3,0.2c-1.3,0.8-3.3,1-4.9,0.6l0,0c-10.1-1.9-20.3-3.6-30.3-5.9
					c-7-1.4-13.9-3.9-19.7-7.3c-7.5-4.3-12.4-9.6-14.6-15.2l0.1,0.1c-0.3-0.6-0.3-1.7,0.4-2.1c0.7-0.4,2.4-0.3,3.5-0.1
					c27.4,5.3,54.9,10.6,82.3,15.8c4,0.7,4.4,1.7,1.4,3.5L446.4,494.5z M409.7,515.8l-9.3,5.4c-2.6,1.5-4.2,1.2-5.4-0.8
					c-4.6-8.1-9.2-16.1-13.9-24.1c-1.4-2.2-0.4-2.8,3.6-2.6c9.9,0.4,19.8,2.9,27.4,7.3c2.9,1.7,5.3,3.5,7.2,5.5l-0.2-0.2
					c2.5,2.4,2.2,2.8-1.2,4.8L409.7,515.8z"/>
			</g>
			<g>
				<path class="st17" d="M709.2,276.3l55,31.8c9.1,5.2,9.1,13.7,0,18.9l-55,31.8c-9.1,5.2-23.7,5.2-32.8,0l-55-31.8
					c-9.1-5.2-9.1-13.7,0-18.9l55-31.8C685.5,271,700.2,271,709.2,276.3z"/>
				<path class="st29" d="M683.9,342.7L683.9,342.7l-7-4l7-4l7,4l8.4-4.8l-10.9-6.3l10.9-6.3l10.9,6.3c11.6-6.7,9-18.5-7.5-22.9
					c-6.1-1.7-13.3-1.7-19.5,0c-16.6,4.5-19.1,16.3-7.5,23l-10.9,6.3c-18.5-10.7-15-29.2,10.4-36.9c11.1-3.4,24.5-3.4,35.6,0
					c25.4,7.7,28.8,26.3,10.4,36.9l-10.9-6.3l-10.9,6.3l8.4,4.8l-8.4,4.8l-8.4-4.8L683.9,342.7L683.9,342.7z"/>
			</g>
			<g>
				<path class="st17" d="M857.8,190.5l55,31.8c9.1,5.2,9.1,13.7,0,18.9l-55,31.8c-9.1,5.2-23.7,5.2-32.8,0l-55-31.8
					c-9.1-5.2-9.1-13.7,0-18.9l55-31.8C834,185.3,848.7,185.3,857.8,190.5z"/>
				<path class="st30" d="M822.8,211.4l23.9-13.8l53.8,31L822.8,211.4z M806.1,221.1l-23.9,13.8l53.8,31L806.1,221.1z M834.4,227.7
					l48.9,10.9l-10.2,5.9l-15.1-3.7l-11,6.4L834.4,227.7z"/>
			</g>
			<g>
				<path class="st17" d="M561.7,361.5l55,31.8c9.1,5.2,9.1,13.7,0,18.9l-55,31.8c-9.1,5.2-23.7,5.2-32.8,0l-55-31.8
					c-9.1-5.2-9.1-13.7,0-18.9l55-31.8C538,356.2,552.7,356.2,561.7,361.5z"/>
				<path class="st31" d="M577.2,405.8l-3.4-1.9v0.1c-0.4,0.6-1,1.2-1.8,1.8c-0.1,0.1-0.2,0.1-0.3,0.2c-0.8,0.5-1.8,0.8-2.9,0.8l0,0
					c-0.9,0.1-1.8,0-2.5-0.2l0,0c-0.5-0.1-0.9-0.3-1.3-0.6c-0.3-0.2-0.6-0.4-0.8-0.6l0,0c-0.5-0.5-0.8-1.1-0.6-1.6
					c0.1-0.5,0.4-1,1-1.4c0.2-0.1,0.4-0.3,0.6-0.4c0.9-0.5,2.1-0.9,3.3-1.1l0,0h0.1l-3.4-2L565,399c-1,0.3-2.1,0.7-3,1.3
					c-0.2,0.1-0.3,0.2-0.4,0.3l0,0c-1,0.6-1.7,1.3-2.1,2l0,0c-0.5,0.7-0.6,1.5-0.5,2.3c0.2,1.2,1.1,2.3,2.7,3.3
					c1.5,0.9,3.4,1.4,5.4,1.6l0,0c2,0.1,4.1-0.1,5.9-0.7c1.9-0.6,3.4-1.6,4.3-2.7L577.2,405.8L577.2,405.8z M543.8,425l-3.4-1.9v0.1
					c-0.4,0.6-1,1.2-1.8,1.8c-0.1,0.1-0.2,0.1-0.3,0.2c-0.8,0.5-1.8,0.7-2.9,0.8l0,0c-0.9,0.1-1.8,0-2.5-0.2l0,0
					c-0.5-0.1-0.9-0.3-1.3-0.6c-0.3-0.2-0.6-0.4-0.8-0.6l0,0c-0.5-0.5-0.8-1.1-0.6-1.6c0.1-0.5,0.4-1,1-1.4c0.2-0.1,0.4-0.3,0.6-0.4
					c0.9-0.5,2.1-0.9,3.3-1.1l0,0h0.1l-3.4-2l-0.2,0.1c-1,0.3-2.1,0.7-3,1.3c-0.2,0.1-0.3,0.2-0.4,0.3l0,0c-1,0.6-1.7,1.3-2.1,2l0,0
					c-0.5,0.8-0.6,1.5-0.5,2.3l0,0c0.2,1.2,1.1,2.3,2.7,3.3c1.5,0.9,3.4,1.4,5.4,1.6l0,0c2,0.1,4-0.1,5.8-0.7h0.1
					c1.9-0.6,3.4-1.6,4.3-2.7L543.8,425L543.8,425z M552.9,416.7l2.9,1.7l0.2-0.1c0.8-0.3,1.5-0.7,2.3-1c0.6-0.3,1.3-0.6,1.8-1
					s1-0.7,1.4-1.1c0.5-0.5,0.7-1,0.8-1.5s-0.1-1-0.4-1.4l0,0c-0.3-0.3-0.6-0.7-1.2-1c-0.5-0.3-1.1-0.5-1.8-0.7l0,0
					c-0.7-0.2-1.4-0.2-2.1-0.2l0,0c-0.7,0-1.4,0.1-2.1,0.3l0,0l-3,0.8c-0.4,0.1-0.8,0.1-1.2,0l0,0c-0.1,0-0.3-0.1-0.4-0.1
					c-0.1-0.1-0.2-0.2-0.3-0.3l0,0c-0.1-0.2-0.1-0.3,0-0.5l0,0c0.1-0.2,0.3-0.4,0.5-0.6l0,0c0.4-0.3,0.9-0.6,1.4-0.8
					c0.6-0.3,1.2-0.5,1.9-0.8l0.1-0.1l-2.7-1.5l-0.3,0.1c-0.6,0.2-1.2,0.5-1.9,0.7h-0.1c-0.4,0.2-0.8,0.4-1.2,0.6
					c-0.4,0.2-0.7,0.4-1,0.7l0,0c-0.8,0.6-1.3,1.3-1.5,2c-0.1,0.5,0,1,0.4,1.5c0.6,0.7,1.5,1.2,2.7,1.6c0.6,0.2,1.3,0.2,1.9,0.2
					c0.6,0,1.2-0.1,1.7-0.2c0.7-0.1,1.4-0.3,2.1-0.5c0.2-0.1,0.5-0.1,0.7-0.2l0.4-0.1h0.1c0.3-0.1,0.7-0.1,1.1-0.2
					c0.3,0,0.5,0,0.8,0.1c0.1,0,0.2,0.1,0.3,0.1s0.2,0.1,0.2,0.2l0,0c0.2,0.2,0.2,0.4,0.1,0.6l0,0c-0.1,0.2-0.3,0.4-0.6,0.6l0,0
					c-0.2,0.2-0.5,0.4-0.9,0.6c-0.1,0.1-0.2,0.1-0.4,0.2l0,0c-0.7,0.3-1.4,0.6-2,0.9h0.1c-0.6,0.2-0.9,0.3-1.3,0.5l0.2-0.1H552.9z
					 M548.5,422.7l3.2-1.8l-12.6-7.3l-3.2,1.8L548.5,422.7z M576.4,396.3c0.1-0.6,0.6-1.2,1.3-1.6c1-0.6,2.4-0.9,3.8-0.8l0,0
					c1,0.1,2,0.3,2.8,0.8c1,0.6,1.5,1.4,1.3,2.2l0,0v0.1c-0.1,0.6-0.6,1.1-1.3,1.6c-1.8,1.1-4.8,1.1-6.6,0
					C576.7,397.8,576.3,397,576.4,396.3L576.4,396.3L576.4,396.3z M574.4,400.5c3.7,2.1,9.6,2,13.2-0.1c0.5-0.3,0.9-0.6,1.3-0.9l0,0
					c2.4-2.1,2.1-4.9-1.1-6.7c-2.4-1.4-5.7-1.8-8.7-1.4l0,0c-1.6,0.2-3.2,0.7-4.5,1.5C570.9,395,570.8,398.3,574.4,400.5
					L574.4,400.5L574.4,400.5z M574.7,381.3c0.9,0.5,2.2,0.4,3.1,0c0.8-0.5,0.9-1.3,0.1-1.8l0,0l-3.5-2c-0.9-0.5-2.2-0.4-3.1,0
					c-0.8,0.5-0.9,1.3-0.1,1.8l0,0L574.7,381.3L574.7,381.3z M566.1,386.3c0.9,0.4,2.2,0.4,3-0.1s0.9-1.2,0.1-1.8l0,0l-7.8-4.5
					c-0.9-0.4-2.2-0.4-3.1,0.1s-0.9,1.3-0.1,1.8l0,0L566.1,386.3L566.1,386.3z M560.5,393c0.9,0.4,2.2,0.4,3-0.1s0.9-1.2,0.1-1.7
					l0,0l-17-9.8c-0.9-0.5-2.2-0.4-3.1,0c-0.8,0.5-0.9,1.3-0.1,1.8l0,0L560.5,393L560.5,393z M548.7,396.3c0.9,0.4,2.2,0.4,3.1-0.1
					s0.9-1.3,0.1-1.8l0,0l-7.8-4.5c-0.9-0.5-2.2-0.4-3.1,0s-0.9,1.3-0.1,1.8l0,0L548.7,396.3L548.7,396.3z M539.9,401.3
					c0.9,0.4,2.2,0.4,3-0.1s0.9-1.2,0.2-1.7l0,0l-3.5-2c-0.9-0.5-2.2-0.4-3.1,0s-0.9,1.3-0.1,1.8l0,0L539.9,401.3L539.9,401.3z
					 M531.3,406.3c0.9,0.5,2.2,0.4,3.1,0c0.8-0.5,0.9-1.3,0.1-1.8l0,0l-7.8-4.5c-0.9-0.5-2.2-0.4-3.1,0c-0.8,0.5-0.9,1.3-0.1,1.8
					l0,0L531.3,406.3z M525.7,413.3c0.9,0.5,2.2,0.4,3.1,0c0.8-0.5,0.9-1.3,0.1-1.8l0,0l-17-9.8c-0.9-0.5-2.2-0.4-3.1,0
					c-0.8,0.5-0.9,1.3-0.1,1.8l0,0L525.7,413.3z M513.8,416.3c0.9,0.4,2.2,0.4,3-0.1s0.9-1.2,0.1-1.7l0,0l-7.8-4.5
					c-0.9-0.5-2.2-0.4-3.1,0c-0.8,0.5-0.9,1.3-0.1,1.8l0,0L513.8,416.3L513.8,416.3z M505.1,421.5c0.9,0.4,2.2,0.4,3-0.1
					s0.9-1.2,0.1-1.7l0,0l-3.5-2c-0.9-0.5-2.2-0.4-3.1,0c-0.8,0.5-0.9,1.3-0.1,1.8l0,0L505.1,421.5L505.1,421.5z"/>
			</g>
			<g>
				<path class="st17" d="M700.3,99.5l55,31.8c9.1,5.2,9.1,13.7,0,18.9l-55,31.8c-9.1,5.2-23.7,5.2-32.8,0l-55-31.8
					c-9.1-5.2-9.1-13.7,0-18.9l55-31.8C676.6,94.4,691.3,94.4,700.3,99.5z"/>
				<path d="M719.1,137.8l-12.4,16.3l-28.2,7.1l2.5,5.3l32.8-8.4l14.5-18.9L719.1,137.8z M654.1,123.5c-13.1,7.5-13.1,19.8,0,27.3
					s34.2,7.5,47.3,0l0,0c13.1-7.5,13.1-19.8,0-27.3C688.3,116,667.1,116,654.1,123.5L654.1,123.5z M694.1,146.7
					c-9,5.2-23.7,5.2-32.7,0s-9-13.7,0-18.9l0,0c9-5.2,23.7-5.2,32.7,0C703.1,133.1,703.1,141.5,694.1,146.7L694.1,146.7z"/>
			</g>
			<g>
				<path class="st17" d="M551.8,185.4l55,31.8c9.1,5.2,9.1,13.7,0,18.9l-55,31.8c-9.1,5.2-23.7,5.2-32.8,0l-55-31.8
					c-9.1-5.2-9.1-13.7,0-18.9l55-31.8C528,180.2,542.7,180.2,551.8,185.4z"/>
				<path class="st32" d="M551.2,235.7c-7.7-0.5-13.4-1.5-17.3-3c-3.2-1.1-5-2.5-5.5-4c-0.6-1.7,0.3-3.3,2.7-4.6
					c2.3-1.4,5-1.9,8-1.5c2.7,0.2,5,1.3,6.9,3.2C548.5,228.1,550.3,231.4,551.2,235.7z M578.1,223.5c2.7,2.1,3.1,4.8,1.5,7.2
					c-3.2,4.7-12.7,5.7-22.9,5.3c-2-10.3-8.3-15.6-16.7-16.5c-4.9-0.5-9.1,0.3-12.8,2.5c-7.4,4.3-5.2,10.2,3.7,13.5
					c4.9,1.7,11.8,2.9,20.7,3.5c0.3,3-0.1,5.5-1,7.3c-0.7,1.4-1.7,2.6-3.1,3.5c-5.7,4.5-17.5,3.7-21.9-1.5c-0.5-0.7-1.5-2-2.8-4.1
					l-0.1-0.1c-4.3-6.7-8.9-14.6-13.8-23.3l-0.2-0.3l-1.3-2.5c-0.9-1.8-1.4-2.6-0.7-4.3c0.3-0.8,1.1-1.6,2.3-2.3
					c2.4-1.4,5.7-1.7,7.6-1.5c1,0.1,2.3,0.3,3.9,0.5l4.1,0.8l0.6,0.1c15.2,2.8,28.7,5.5,40.4,8h0.1l4.4,1l2.7,0.6
					C575.1,221.6,576.7,222.4,578.1,223.5L578.1,223.5z M575.2,218.2c-1.9-0.6-4.5-1.1-7.5-1.7h-0.1c-14.8-3.1-28.3-5.8-40.6-8
					l-0.7-0.1c-9.1-1.8-14.9-2.7-21.1,0.9c-6.1,3.5-4.5,7.5-1.6,12.2l0.2,0.3c3.9,7.1,8.6,14.9,13.9,23.4l0.1,0.1l1.7,2.6
					c0.7,1,1.1,1.6,1.3,1.7c5.9,7.3,21.1,8,29.6,3.2c0.1,0,0.3-0.2,0.6-0.4l0.9-0.5c3.9-2.8,5.6-7.1,5.2-12.6
					c9.6,0.2,16.9-0.8,21.9-3l0.9-0.5c0.4-0.2,0.7-0.3,0.7-0.3C589.1,230.4,587.9,221.7,575.2,218.2L575.2,218.2z"/>
			</g>
			<g>
				<path class="st17" d="M256.8,355.7l55,31.8c9.1,5.2,9.1,13.7,0,18.9l-55,31.8c-9.1,5.2-23.7,5.2-32.8,0l-55-31.8
					c-9.1-5.2-9.1-13.7,0-18.9l55-31.8C233.1,350.5,247.8,350.5,256.8,355.7z"/>
				<path class="st33" d="M231.9,378.3L208.2,392l0,0c-11.3,6.5-11.2,17,0,23.5s29.5,6.5,40.7,0l23.7-13.7c11.3-6.5,11.2-17,0-23.5
					S243.1,371.8,231.9,378.3L231.9,378.3L231.9,378.3z M264.9,398L242.3,411c-7.3,4.1-18.9,4-26.1-0.2c-7.2-4.2-7.3-10.9-0.3-15.1
					l0,0l22.6-13.1c7.3-4.2,19.1-4.2,26.4,0C272.2,387,272.2,393.8,264.9,398L264.9,398z"/>
			</g>
			<g>
				<path class="st17" d="M404.3,270.5l55,31.8c9.1,5.2,9.1,13.7,0,18.9l-55,31.8c-9.1,5.2-23.7,5.2-32.8,0l-55-31.8
					c-9.1-5.2-9.1-13.7,0-18.9l55-31.8C380.6,265.3,395.2,265.3,404.3,270.5z"/>
				<path d="M335.3,305.6c-5.8,3.4-5.8,8.8,0,12.2l0,0l42,24.3c5.8,3.4,15.3,3.3,21.1,0l42-24.3c5.8-3.4,5.8-8.8,0-12.2l-42.1-24.3
					c-5.8-3.3-15.3-3.3-21.1,0l0,0l0,0L335.3,305.6z M351.1,309.9l33.5-19.3c1.8-1.1,4.8-1,6.7,0l33.5,19.3c1.8,1.1,1.9,2.8,0,3.8
					L391.3,333c-1.8,1.1-4.8,1-6.7,0l-33.5-19.3l0,0C349.2,312.5,349.2,310.9,351.1,309.9L351.1,309.9L351.1,309.9z M372.6,310.6
					c-1.1,0.6-1.1,1.6,0,2.2l0,0l13.4,7.7c1.1,0.6,2.7,0.6,3.8,0l13.4-7.7l0,0c1.1-0.6,1.1-1.6,0-2.2l-13.4-7.7
					c-1.1-0.6-2.8-0.6-3.8,0l0,0L372.6,310.6z"/>
			</g>
			<g>
				<path class="st17" d="M719.2,452.3l55,31.8c9.1,5.2,9.1,13.7,0,18.9l-55,31.8c-9.1,5.2-23.7,5.2-32.8,0l-55-31.8
					c-9.1-5.2-9.1-13.7,0-18.9l55-31.8C695.4,447,710.1,447,719.2,452.3z"/>
				<path class="st34" d="M679.7,521l13.7-7.9l2,1.1l-13.7,7.9L679.7,521z M675.9,518.8l13.7-7.9l2,1.1l-13.7,7.9L675.9,518.8z
					 M676.1,514.3l5.9-3.4l2,1.1l-5.9,3.4L676.1,514.3z M672.3,512.2l5.9-3.4l2,1.1l-5.9,3.4L672.3,512.2z M668.5,510l5.9-3.4l2,1.1
					l-5.9,3.4L668.5,510z M664.8,507.8l5.9-3.4l2,1.1l-5.9,3.4L664.8,507.8z M657.1,508l13.7-7.9l2,1.1l-13.7,7.9L657.1,508z
					 M653.4,505.8l13.7-7.9l2,1.1l-13.7,7.9L653.4,505.8z M693.5,510.8l21.1-12.2c-0.3-0.6-0.6-1.1-1.2-1.6l-21.9,12.6L693.5,510.8z
					 M703.5,494.2l-15.5,9l2,1.1l17.2-9.9C705.9,494.2,704.7,494,703.5,494.2L703.5,494.2L703.5,494.2z M684.2,501l2,1.1l15.5-9
					c0.1-0.7,0-1.4-0.3-2.1L684.2,501z M693.9,486.7l-21.1,12.2l2,1.1l21.9-12.6C695.7,487,694.8,486.8,693.9,486.7L693.9,486.7z
					 M683.6,488.3l-14.6,8.4l2,1.1l19.6-11.3C688.1,486.5,685.6,487.2,683.6,488.3L683.6,488.3L683.6,488.3L683.6,488.3z
					 M680.5,498.8l5.9-3.4l2,1.1l-5.9,3.4L680.5,498.8z M694.2,493.2l6.1-3.5c-0.5-0.5-1-0.9-1.7-1.3l-6.4,3.7L694.2,493.2z
					 M691.7,505.3l5.9-3.4l2,1.1l-5.9,3.4L691.7,505.3z M703.5,498.5l2,1.1l6.4-3.7c-0.7-0.4-1.4-0.7-2.2-1L703.5,498.5z M697.3,513
					l14.6-8.4c2-1.1,3-2.6,3.1-4l-19.6,11.3L697.3,513z M718.8,498.3l9.8-5.7l2,1.1l-9.8,5.7L718.8,498.3z M715.1,496.2l9.8-5.7
					l2,1.1l-9.9,5.7L715.1,496.2z M715.2,491.8l5.9-3.4l2,1.1l-5.9,3.4L715.2,491.8z M711.5,489.5l5.9-3.4l2,1.1l-5.9,3.4
					L711.5,489.5z M708.8,478l-12.5,7.2l2,1.1l13.2-7.6L708.8,478z M703.7,476.7l-11.2,6.5l2,1.1l11.9-6.9L703.7,476.7z
					 M740.4,485.8l9.8-5.7l2,1.1l-9.8,5.7L740.4,485.8z M736.6,483.7l9.8-5.7l2,1.1l-9.8,5.7L736.6,483.7z M732.9,481.5l5.9-3.4
					l2,1.1l-5.9,3.4L732.9,481.5z M729.1,479.3l5.9-3.4l2,1.1l-5.9,3.4L729.1,479.3z M727.3,478.3l5.9-3.4l-2-1.1l-11.2,6.4l1,1.2
					l-2.1-0.6l-11.2,6.5l2,1.1l5.9-3.4l-1.8-1l2.4,0.7l10.5-6.1l-1.2-1.4L727.3,478.3z M727.5,471.7l-9.9,5.7l1.3,1.5l10.6-6.1
					L727.5,471.7z M712.7,471.5l1.3,1.5l11.9-6.9l-2-1.1L712.7,471.5z M736.5,490.3l-1.3-1.5l-1.4,0.8L736.5,490.3z M731.4,489
					l2.6-1.5l-1.3-1.5l-4,2.3L731.4,489z M726.3,487.5l5.2-3l-1.3-1.5l-6.6,3.8L726.3,487.5z M721.3,486.2l7.9-4.5l-1.3-1.5
					l-9.2,5.3L721.3,486.2z M705.9,486.3l10.6-6.1l-2.7-0.7l-9.9,5.7L705.9,486.3z M716.4,476l13.2-7.6l-2-1.1l-12.5,7.2L716.4,476z
					"/>
			</g>
			<g>
				<path class="st17" d="M866.6,367.2l55,31.8c9.1,5.2,9.1,13.7,0,18.9l-55,31.8c-9.1,5.2-23.7,5.2-32.8,0l-55-31.8
					c-9.1-5.2-9.1-13.7,0-18.9l55-31.8C842.9,362,857.6,362,866.6,367.2z"/>
				<path class="st35" d="M844.5,375.3L792.8,405c-3.2,1.8-3.2,4.8,0,6.6l51.7,29.8c3.2,1.8,8.3,1.8,11.4,0l51.7-29.8
					c3.2-1.8,3.2-4.8,0-6.6L856,375.3C852.8,373.5,847.7,373.5,844.5,375.3L844.5,375.3z M820.5,403.3c2.1-1.2,5.5-1.3,7.6,0
					c2.2,1.2,2,3.2-0.1,4.4h0.1c-2.1,1.2-5.5,1.2-7.7,0C818.4,406.5,818.4,404.5,820.5,403.3L820.5,403.3z M882.6,409.3
					c-3.9,2.3-8.1,2-11.3,0.2c-0.9-0.5-1.8-1.1-2.4-1.9l-4.8-4.9c-0.5-0.6-1.1-1-1.7-1.3c-2.2-1.2-4.8-1.2-6.9,0
					c-2.7,1.5-2.5,3.7,0.3,6.3l10.9,10.5l-6.3,3.7l-3.4-3.3c1.2,2.8,0.5,5.4-2.7,7.3c-3.9,2.2-7.9,2-11.2,0.1
					c-0.9-0.6-1.8-1.2-2.5-1.8l0,0l-8.9-8.5l-4.5,2.6l-3.6-3.7l10.8-6.2l12.6,12.2c0.8,0.8,1.6,1.4,2.2,1.7c1.1,0.6,1.9,0.5,2.9,0.1
					c0.6-0.2,4.6-2.6,1.9-6.7l-8.4-8.1l-4.5,2.6l-3.6-3.6l9.8-5.6l4.4,4c-1.5-2.8-1.1-6.5,2.3-8.5c3.6-2.1,9.1-2.3,13.9,0.5
					c1.4,0.8,2.6,1.7,3.5,2.8l4.7,4.8c0.5,0.5,0.9,0.9,1.5,1.2c1.1,0.7,2.2,0.7,3,0.2s1.3-1.5-0.9-4.2l3.4-0.9
					C886.5,404.7,886,407.5,882.6,409.3L882.6,409.3z"/>
			</g>
			<g>
				<path class="st17" d="M571.7,537.5l55,31.8c9.1,5.2,9.1,13.7,0,18.9l-55,31.8c-9.1,5.2-23.7,5.2-32.8,0l-55-31.8
					c-9.1-5.2-9.1-13.7,0-18.9l55-31.8C547.9,532.3,562.6,532.3,571.7,537.5z"/>
				<path d="M547.3,560h47.9v9.4h-31.6v6.4h-16.3L547.3,560z M547.4,578.8h16.3H579v9.4h-31.5v14.5v3.7h-16.3v-27.6L547.4,578.8z"/>
			</g>
			<g>
				<path class="st17" d="M1015.2,281.4l55,31.8c9.1,5.2,9.1,13.7,0,18.9l-55,31.8c-9.1,5.2-23.7,5.2-32.8,0l-55-31.8
					c-9.1-5.2-9.1-13.7,0-18.9l55-31.8C991.4,276.1,1006.1,276.1,1015.2,281.4z"/>
				<path d="M990.7,327.3c-4.2-2.4-4.2-6.3,0-8.8c4.2-2.4,11-2.4,15.2,0s4.2,6.3,0,8.8C1001.7,329.7,994.9,329.7,990.7,327.3z
					 M966.5,304.5c-14.9,8.6-17.1,21.7-6.9,31.6c0.1,0.1,0.2,0.1,0.3,0.2c0.8,0.5,2.2,0.5,3.1,0l12.8-7.4c0.6-0.4,0.8-0.9,0.5-1.3
					c-3.1-4.8-1.3-10.5,5.4-14.4c9.2-5.3,24.2-5.3,33.4,0c9.2,5.3,9.2,14,0,19.3c-6.7,3.9-16.5,4.9-24.9,3.1
					c-0.8-0.1-1.7-0.1-2.3,0.3l-12.8,7.4c-0.8,0.5-0.9,1.3,0,1.8c0.1,0.1,0.2,0.1,0.4,0.2c17.3,5.9,39.9,4.6,54.8-4
					c17.6-10.2,17.6-26.6,0-36.8C1012.6,294.4,984,294.4,966.5,304.5L966.5,304.5z"/>
			</g>
		</g>
	</g>
</g>
</svg>
