<?xml version="1.0" encoding="utf-8"?>
<!-- Generator: Adobe Illustrator 22.0.1, SVG Export Plug-In . SVG Version: 6.00 Build 0)  -->
<svg version="1.1" id="Capa_1" xmlns="http://www.w3.org/2000/svg" xmlns:xlink="http://www.w3.org/1999/xlink" x="0px" y="0px"
	 viewBox="0 0 471.7 720" style="enable-background:new 0 0 471.7 720;" xml:space="preserve">
<style type="text/css">
	.st0{opacity:8.000000e-02;fill:#202020;}
</style>
<path class="st0" d="M471.7,8.3v620.8c-17.2,9.3-36.9,23.9-62.1,48.4c-43.2,41.9-92.9,50.4-144,30.8
	c-41.6-15.9-84.1-50.5-124.8-100.6C72.9,523.9,41.9,407.8,48,328.3c6.3-82.5,67.4-149.1,115.1-208.2C207,65.7,247.5,28.8,307.8,12
	c24.6-6.8,52.4-10.3,85.1-10.3C420.9,1.7,447,3.8,471.7,8.3z"/>
<path class="st0" d="M471.7,33.8v569c-35.5,7.2-63.2,12-118.6,65.8c-27,26.2-56.6,39-87.4,39.7c-56.4,1.4-117.1-37.3-174.1-107.6
	c-66-81.5-96.2-194.5-90.3-271.9c6.2-80.3,65.6-145.1,112-202.6C167.8,58.6,216.9,18.8,307.8,12c9.2-0.7,18.9-1,29-1
	C387,11,431.1,17.9,471.7,33.8z"/>
<g>
</g>
<g>
</g>
<g>
</g>
<g>
</g>
<g>
</g>
<g>
</g>
<g>
</g>
<g>
</g>
<g>
</g>
<g>
</g>
<g>
</g>
<g>
</g>
<g>
</g>
<g>
</g>
<g>
</g>
</svg>
