<?xml version="1.0" encoding="utf-8"?>
<!-- Generator: Adobe Illustrator 22.0.1, SVG Export Plug-In . SVG Version: 6.00 Build 0)  -->
<svg version="1.1" id="Capa_1" xmlns="http://www.w3.org/2000/svg" xmlns:xlink="http://www.w3.org/1999/xlink" x="0px" y="0px"
	 viewBox="0 0 1388.9 366.4" style="enable-background:new 0 0 1388.9 366.4;" xml:space="preserve">
<style type="text/css">
	.st0{fill:#202020;}
	.st1{fill:#FFFFFF;}
</style>
<g>
	<path class="st0" d="M271.8,171.6c-5.7,10.1-8.5,21.3-8.5,33.8c0,12.7,3,24,8.8,34c5.9,10,14.2,17.8,24.9,23.4
		c6.9,3.6,14.5,6.1,22.9,7.3c-15.2,17.9-35.8,30.8-60,37.4c-26.3,7.2-40,2.9-75.5,37.4c-39.7,38.6-90.2,21.3-136.2-35.4
		C13.8,267.1-1.9,208.3,1.2,168c3.2-41.8,34.1-75.6,58.3-105.5c31.3-38.7,59.2-60,116.4-60c46.5,0,83,11.4,116.8,39.9
		c31.4,26.4,43.3,58.3,49.6,98.5c-4.1-0.7-8.3-1-12.7-1c-12.6,0-24,2.8-34.1,8.4C285.4,153.8,277.5,161.6,271.8,171.6z"/>
	<path class="st0" d="M345.3,214.9c-1.9,11-5.2,21.3-9.7,30.8H335c-11.1,0-20.4-2.8-27.8-8.3c-7.4-5.6-12-13-13.8-22.5H345.3z"/>
	<path class="st0" d="M347.3,194.9h-54c1.4-9.4,5.5-17,12.1-22.7c6.6-5.6,14.7-8.5,24.4-8.5c5.9,0,11.2,1,15.9,3.1
		c0.3,3.2,0.6,6.3,1,9.6C347.2,182.7,347.4,188.9,347.3,194.9z"/>
	<path class="st1" d="M179.5,127.7h-55.7v-26.4h142.7v26.4h-55.7v141.8h-31.2V127.7H179.5z"/>
	<path class="st1" d="M345.3,214.9h-51.9c1.8,9.5,6.4,16.9,13.8,22.5c7.4,5.5,16.7,8.3,27.8,8.3h0.6c-4.2,8.9-9.5,17.1-15.7,24.4
		c-8.3-1.3-16-3.7-22.9-7.3c-10.7-5.6-19-13.4-24.9-23.4c-5.8-10-8.8-21.3-8.8-34c0-12.5,2.8-23.7,8.5-33.8
		c5.7-10,13.6-17.8,23.7-23.4c10.1-5.6,21.5-8.4,34.1-8.4c4.4,0,8.6,0.3,12.7,1c1.3,8.3,2.4,16.9,3.3,26c-4.7-2.1-10-3.1-15.9-3.1
		c-9.7,0-17.8,2.9-24.4,8.5c-6.6,5.7-10.7,13.3-12.1,22.7h54C347.1,201.8,346.4,208.5,345.3,214.9z"/>
	<path class="st0" d="M394.5,206.1c0,2-0.1,4.9-0.5,8.8h-48.7c1.1-6.4,1.8-13.1,2-20H366c-1.3-9.3-5.2-16.8-11.8-22.6
		c-2.6-2.3-5.5-4.1-8.6-5.5c-1-9-2-17.7-3.3-26c7.5,1.3,14.5,3.7,20.8,7.3c9.9,5.5,17.5,13.3,23.1,23.3
		C391.7,181.4,394.5,193,394.5,206.1z"/>
	<path class="st0" d="M385.9,250.3c-5.8,6.9-13.1,12.1-21.9,15.6s-18.7,5.3-29.8,5.3c-5,0-9.8-0.3-14.3-1.1
		c6.2-7.3,11.5-15.5,15.7-24.4c13.8-0.1,25.2-4.7,34.2-13.9L385.9,250.3z"/>
	<path class="st0" d="M446.4,262.7c-10.6-5.6-18.8-13.4-24.7-23.4c-5.9-10-8.9-21.3-8.9-34s3-23.9,8.9-33.9
		c5.9-9.9,14.1-17.7,24.6-23.3s22.5-8.4,35.9-8.4c12.7,0,23.7,2.6,33.3,7.7c9.5,5.1,16.7,12.5,21.5,22.1L513.9,183
		c-3.7-5.9-8.3-10.4-13.8-13.3c-5.5-3-11.6-4.4-18.1-4.4c-11.2,0-20.5,3.6-27.9,10.9c-7.4,7.3-11.1,17-11.1,29.2s3.6,21.9,10.9,29.2
		s16.6,10.9,28,10.9c6.6,0,12.6-1.5,18.1-4.4c5.5-3,10.1-7.4,13.8-13.3l23.1,13.5c-5,9.6-12.2,17-21.7,22.2s-20.5,7.8-33,7.8
		C468.9,271.1,457,268.3,446.4,262.7z"/>
	<path class="st0" d="M674.7,153.9c9.8,9.5,14.7,23.5,14.7,42v73.5h-30v-69.7c0-11.2-2.6-19.7-7.9-25.3c-5.3-5.7-12.8-8.5-22.6-8.5
		c-11.1,0-19.8,3.3-26.2,10c-6.4,6.6-9.6,16.2-9.6,28.7v64.9h-30V141.1h28.6v16.6c5-5.9,11.2-10.4,18.7-13.5c7.5-3,16-4.6,25.5-4.6
		C651.9,139.7,664.9,144.4,674.7,153.9z"/>
	<path class="st0" d="M729,114.8c-3.7-3.4-5.5-7.7-5.5-12.9c0-5.1,1.8-9.4,5.5-12.9c3.7-3.4,8.2-5.2,13.7-5.2c5.4,0,10,1.6,13.7,4.9
		s5.5,7.4,5.5,12.4c0,5.3-1.8,9.7-5.4,13.3c-3.6,3.6-8.2,5.4-13.8,5.4C737.2,120,732.7,118.3,729,114.8z M727.5,141.1h30v128.3h-30
		V141.1z"/>
	<path class="st0" d="M820,262.7c-10.6-5.6-18.8-13.4-24.7-23.4s-8.9-21.3-8.9-34s3-23.9,8.9-33.9c5.9-9.9,14.1-17.7,24.6-23.3
		s22.5-8.4,35.9-8.4c12.7,0,23.7,2.6,33.3,7.7c9.5,5.1,16.7,12.5,21.5,22.1L887.5,183c-3.7-5.9-8.3-10.4-13.8-13.3
		c-5.5-3-11.6-4.4-18.1-4.4c-11.2,0-20.5,3.6-27.9,10.9c-7.4,7.3-11.1,17-11.1,29.2s3.6,21.9,10.9,29.2c7.3,7.3,16.6,10.9,28,10.9
		c6.6,0,12.6-1.5,18.1-4.4c5.5-3,10.1-7.4,13.8-13.3l23.1,13.5c-5,9.6-12.2,17-21.7,22.2s-20.5,7.8-33,7.8
		C842.5,271.1,830.6,268.3,820,262.7z"/>
	<path class="st0" d="M957.2,262.7c-10.4-5.6-18.5-13.4-24.4-23.4c-5.8-10-8.8-21.3-8.8-34s2.9-23.9,8.8-33.9
		c5.8-9.9,14-17.7,24.4-23.3s22.1-8.4,35.1-8.4c13.1,0,24.9,2.8,35.3,8.4c10.4,5.6,18.5,13.4,24.4,23.3c5.8,9.9,8.8,21.2,8.8,33.9
		s-2.9,24-8.8,34c-5.8,10-14,17.8-24.4,23.4s-22.2,8.4-35.3,8.4C979.3,271.1,967.6,268.3,957.2,262.7z M1019.7,234.3
		c7.2-7.4,10.8-17.1,10.8-29.1s-3.6-21.7-10.8-29.1c-7.2-7.4-16.3-11.1-27.4-11.1c-11.1,0-20.1,3.7-27.3,11.1
		c-7.1,7.4-10.7,17.1-10.7,29.1s3.6,21.7,10.7,29.1c7.1,7.4,16.2,11.1,27.3,11.1C1003.3,245.4,1012.5,241.7,1019.7,234.3z"/>
	<path class="st0" d="M1089.6,91.2h30v178.3h-30V91.2z"/>
	<path class="st0" d="M1181.6,262.7c-10.4-5.6-18.5-13.4-24.4-23.4c-5.8-10-8.8-21.3-8.8-34s2.9-23.9,8.8-33.9
		c5.8-9.9,14-17.7,24.4-23.3s22.1-8.4,35.1-8.4c13.1,0,24.9,2.8,35.3,8.4c10.4,5.6,18.5,13.4,24.4,23.3c5.8,9.9,8.8,21.2,8.8,33.9
		s-2.9,24-8.8,34c-5.8,10-14,17.8-24.4,23.4s-22.2,8.4-35.3,8.4C1203.7,271.1,1192,268.3,1181.6,262.7z M1244.1,234.3
		c7.2-7.4,10.8-17.1,10.8-29.1s-3.6-21.7-10.8-29.1c-7.2-7.4-16.3-11.1-27.4-11.1s-20.1,3.7-27.3,11.1c-7.1,7.4-10.7,17.1-10.7,29.1
		s3.6,21.7,10.7,29.1c7.1,7.4,16.2,11.1,27.3,11.1C1227.7,245.4,1236.9,241.7,1244.1,234.3z"/>
	<path class="st0" d="M1388.2,139.7v28.6c-2.6-0.5-4.9-0.7-7-0.7c-11.7,0-20.8,3.4-27.4,10.2s-9.9,16.6-9.9,29.4v62.2h-30V141.1
		h28.6v18.7C1351.2,146.4,1366.5,139.7,1388.2,139.7z"/>
</g>
</svg>
