<?xml version="1.0" encoding="utf-8"?>
<!-- Generator: Adobe Illustrator 22.0.1, SVG Export Plug-In . SVG Version: 6.00 Build 0)  -->
<svg version="1.1" id="Capa_1" xmlns="http://www.w3.org/2000/svg" xmlns:xlink="http://www.w3.org/1999/xlink" x="0px" y="0px"
	 viewBox="0 0 1920 1920" style="enable-background:new 0 0 1920 1920;" xml:space="preserve">
<style type="text/css">
	.st0{fill:#FFFFFF;}
	.st1{fill:#202020;}
</style>
<g>
	<path id="T-icon" class="st0" d="M1869.3,921.7c33.5,353.1-162.8,610.6-456.7,690.7c-138.7,37.8-210.7,15.4-398.1,197.3
		c-209.3,203.2-475.5,112.1-717.8-186.4c-181.2-223.6-264-533.7-247.7-746c16.9-220.2,179.9-398.2,307.4-556
		c165-204.2,311.9-316,613.6-316c245,0,437.3,60.3,615.6,210.5C1796.6,393.4,1840.5,618.6,1869.3,921.7z"/>
	<g>
		<path class="st1" d="M988.7,665.1H695V525.8h752V665h-293.8v747H988.7V665.1z"/>
	</g>
</g>
</svg>
